<svg width="375" height="406" viewBox="0 0 375 406" fill="none" xmlns="http://www.w3.org/2000/svg">
<rect width="375" height="406" fill="#EAF2FF"/>
<mask id="mask0_1_719" style="mask-type:alpha" maskUnits="userSpaceOnUse" x="171" y="189" width="33" height="28">
<path d="M182.963 198.622C182.963 200.463 181.53 201.955 179.763 201.955C177.995 201.955 176.563 200.463 176.563 198.622C176.563 196.781 177.995 195.288 179.763 195.288C181.53 195.288 182.963 196.781 182.963 198.622Z" fill="#B4DBFF"/>
<path fill-rule="evenodd" clip-rule="evenodd" d="M171.501 193C171.501 191.16 172.933 189.667 174.701 189.667H200.3C202.067 189.667 203.499 191.16 203.499 193V213C203.499 214.84 202.067 216.333 200.3 216.333H198.187C198.18 216.333 198.173 216.333 198.166 216.333H175.43C175.424 216.333 175.418 216.333 175.412 216.333H174.701C172.933 216.333 171.501 214.84 171.501 213V193ZM174.701 192.167H200.3C200.741 192.167 201.1 192.54 201.1 193V203.387L194.147 196.334L182.32 208.333L178.836 204.798L173.901 209.805V193C173.901 192.54 174.259 192.167 174.701 192.167Z" fill="#B4DBFF"/>
</mask>
<g mask="url(#mask0_1_719)">
<rect x="171.5" y="187" width="31.9987" height="31.9987" fill="#B4DBFF"/>
</g>
</svg>
