<svg width="167" height="92" viewBox="0 0 167 92" fill="none" xmlns="http://www.w3.org/2000/svg">
<rect width="166" height="91" transform="translate(0.964355 0.413208)" fill="#EAF2FF"/>
<mask id="mask0_1_454" style="mask-type:alpha" maskUnits="userSpaceOnUse" x="67" y="32" width="33" height="28">
<path d="M79.4269 41.5349C79.4269 43.3757 77.9943 44.8681 76.227 44.8681C74.4598 44.8681 73.0271 43.3757 73.0271 41.5349C73.0271 39.694 74.4598 38.2017 76.227 38.2017C77.9943 38.2017 79.4269 39.694 79.4269 41.5349Z" fill="#B4DBFF"/>
<path fill-rule="evenodd" clip-rule="evenodd" d="M67.9651 35.9136C67.9651 34.0727 69.3977 32.5804 71.165 32.5804H96.764C98.5312 32.5804 99.9638 34.0727 99.9638 35.9136V55.9128C99.9638 57.7537 98.5312 59.246 96.764 59.246H94.6518C94.6448 59.246 94.6377 59.246 94.6307 59.246H71.8942C71.8882 59.246 71.8822 59.246 71.8762 59.246H71.165C69.3977 59.246 67.9651 57.7537 67.9651 55.9128V35.9136ZM71.165 35.0803H96.764C97.2058 35.0803 97.5639 35.4534 97.5639 35.9136V46.3001L90.6118 39.2468L78.7841 51.2464L75.3 47.7116L70.365 52.7184V35.9136C70.365 35.4534 70.7232 35.0803 71.165 35.0803Z" fill="#B4DBFF"/>
</mask>
<g mask="url(#mask0_1_454)">
<rect x="67.9648" y="29.9129" width="31.9987" height="31.9987" fill="#B4DBFF"/>
</g>
</svg>
